<svg xmlns="http://www.w3.org/2000/svg" viewBox="0 0 100 100" width="100" height="100">
  <defs>
    <linearGradient id="bgGrad" x1="0%" y1="0%" x2="100%" y2="100%">
      <stop offset="0%" style="stop-color:#1a1a2e"/>
      <stop offset="100%" style="stop-color:#16213e"/>
    </linearGradient>
    <linearGradient id="pageGrad" x1="0%" y1="0%" x2="5%" y2="100%">
      <stop offset="0%" style="stop-color:#f8fafc"/>
      <stop offset="100%" style="stop-color:#e2e8f0"/>
    </linearGradient>
    <linearGradient id="headerGrad" x1="0%" y1="0%" x2="100%" y2="0%">
      <stop offset="0%" style="stop-color:#2563eb"/>
      <stop offset="100%" style="stop-color:#3b82f6"/>
    </linearGradient>
    <linearGradient id="greenGrad" x1="0%" y1="0%" x2="100%" y2="100%">
      <stop offset="0%" style="stop-color:#22c55e"/>
      <stop offset="100%" style="stop-color:#16a34a"/>
    </linearGradient>
    <linearGradient id="redGrad" x1="0%" y1="0%" x2="100%" y2="100%">
      <stop offset="0%" style="stop-color:#ef4444"/>
      <stop offset="100%" style="stop-color:#dc2626"/>
    </linearGradient>
    <linearGradient id="pencilYellow" x1="0%" y1="0%" x2="100%" y2="100%">
      <stop offset="0%" style="stop-color:#fcd34d"/>
      <stop offset="100%" style="stop-color:#f59e0b"/>
    </linearGradient>
    <linearGradient id="avatar1" x1="0%" y1="0%" x2="100%" y2="100%">
      <stop offset="0%" style="stop-color:#3b82f6"/>
      <stop offset="100%" style="stop-color:#1d4ed8"/>
    </linearGradient>
    <linearGradient id="avatar2" x1="0%" y1="0%" x2="100%" y2="100%">
      <stop offset="0%" style="stop-color:#8b5cf6"/>
      <stop offset="100%" style="stop-color:#6d28d9"/>
    </linearGradient>
    <linearGradient id="avatar3" x1="0%" y1="0%" x2="100%" y2="100%">
      <stop offset="0%" style="stop-color:#475569"/>
      <stop offset="100%" style="stop-color:#334155"/>
    </linearGradient>
    <filter id="shadow">
      <feDropShadow dx="1" dy="3" stdDeviation="3" flood-color="#000" flood-opacity="0.4"/>
    </filter>
    <filter id="pencilShadow">
      <feDropShadow dx="1" dy="1" stdDeviation="1.5" flood-color="#000" flood-opacity="0.3"/>
    </filter>
  </defs>
  <circle cx="50" cy="50" r="48" fill="url(#bgGrad)"/>
  <circle cx="50" cy="50" r="48" fill="none" stroke="#2563eb" stroke-width="0.8" opacity="0.5"/>
  <g filter="url(#shadow)">
    <rect x="18" y="22" width="52" height="62" rx="3" fill="url(#pageGrad)"/>
    <line x1="27" y1="22" x2="27" y2="84" stroke="#fca5a5" stroke-width="1.4"/>
    <rect x="18" y="22" width="52" height="10" rx="3" fill="url(#headerGrad)"/>
    <rect x="18" y="28" width="52" height="4" fill="url(#headerGrad)"/>
    <rect x="38" y="16" width="12" height="10" rx="2" fill="#475569"/>
    <rect x="40" y="18" width="8" height="5" rx="1" fill="#1e293b"/>
  </g>
  <line x1="28" y1="26" x2="52" y2="26" stroke="white" stroke-width="1.8" stroke-linecap="round" opacity="0.9"/>
  <circle cx="23" cy="41" r="4.5" fill="url(#avatar1)"/>
  <circle cx="23" cy="39.5" r="2" fill="white" opacity="0.85"/>
  <path d="M20.2,43.5 Q23,41.5 25.8,43.5" fill="white" opacity="0.6"/>
  <line x1="31" y1="39.5" x2="52" y2="39.5" stroke="#334155" stroke-width="1.6" stroke-linecap="round"/>
  <line x1="31" y1="43" x2="48" y2="43" stroke="#94a3b8" stroke-width="1.1" stroke-linecap="round"/>
  <circle cx="59" cy="41" r="5" fill="url(#greenGrad)"/>
  <polyline points="56.5,41 58.2,42.8 61.8,38.2" fill="none" stroke="white" stroke-width="1.8" stroke-linecap="round" stroke-linejoin="round"/>
  <circle cx="23" cy="55" r="4.5" fill="url(#avatar2)"/>
  <circle cx="23" cy="53.5" r="2" fill="white" opacity="0.85"/>
  <path d="M20.2,57.5 Q23,55.5 25.8,57.5" fill="white" opacity="0.6"/>
  <line x1="31" y1="53.5" x2="52" y2="53.5" stroke="#334155" stroke-width="1.6" stroke-linecap="round"/>
  <line x1="31" y1="57" x2="46" y2="57" stroke="#94a3b8" stroke-width="1.1" stroke-linecap="round"/>
  <circle cx="59" cy="55" r="5" fill="url(#greenGrad)"/>
  <polyline points="56.5,55 58.2,56.8 61.8,52.2" fill="none" stroke="white" stroke-width="1.8" stroke-linecap="round" stroke-linejoin="round"/>
  <circle cx="23" cy="69" r="4.5" fill="url(#avatar3)"/>
  <circle cx="23" cy="67.5" r="2" fill="white" opacity="0.5"/>
  <path d="M20.2,71.5 Q23,69.5 25.8,71.5" fill="white" opacity="0.3"/>
  <line x1="31" y1="67.5" x2="52" y2="67.5" stroke="#334155" stroke-width="1.6" stroke-linecap="round"/>
  <line x1="31" y1="71" x2="49" y2="71" stroke="#94a3b8" stroke-width="1.1" stroke-linecap="round"/>
  <circle cx="59" cy="69" r="5" fill="url(#redGrad)"/>
  <line x1="56.5" y1="66.5" x2="61.5" y2="71.5" stroke="white" stroke-width="1.8" stroke-linecap="round"/>
  <line x1="61.5" y1="66.5" x2="56.5" y2="71.5" stroke="white" stroke-width="1.8" stroke-linecap="round"/>
  <g filter="url(#pencilShadow)" transform="translate(72, 72) rotate(-40)">
    <rect x="-3" y="-18" width="6" height="4" rx="1" fill="#f9a8d4"/>
    <rect x="-3" y="-15" width="6" height="1" fill="#94a3b8"/>
    <rect x="-3" y="-14" width="6" height="17" rx="1" fill="url(#pencilYellow)"/>
    <rect x="-3" y="3" width="6" height="4" fill="#d4a574"/>
    <polygon points="-3,7 3,7 0,13" fill="#1e293b"/>
    <line x1="-1" y1="-13" x2="-1" y2="3" stroke="white" stroke-width="0.8" opacity="0.3" stroke-linecap="round"/>
  </g>
</svg>
