<svg xmlns="http://www.w3.org/2000/svg" viewBox="0 0 100 100" width="100" height="100">
  <defs>
    <linearGradient id="bgGrad" x1="0%" y1="0%" x2="100%" y2="100%">
      <stop offset="0%" style="stop-color:#1a1a2e"/>
      <stop offset="100%" style="stop-color:#16213e"/>
    </linearGradient>
    <linearGradient id="panelGrad" x1="0%" y1="0%" x2="100%" y2="100%">
      <stop offset="0%" style="stop-color:#e8f4fd"/>
      <stop offset="100%" style="stop-color:#c8dff0"/>
    </linearGradient>
    <linearGradient id="headerGrad" x1="0%" y1="0%" x2="100%" y2="0%">
      <stop offset="0%" style="stop-color:#2563eb"/>
      <stop offset="100%" style="stop-color:#3b82f6"/>
    </linearGradient>
    <linearGradient id="kpiGrad" x1="0%" y1="0%" x2="100%" y2="100%">
      <stop offset="0%" style="stop-color:#1e3a5f"/>
      <stop offset="100%" style="stop-color:#1e4080"/>
    </linearGradient>
    <linearGradient id="avatarGrad" x1="0%" y1="0%" x2="100%" y2="100%">
      <stop offset="0%" style="stop-color:#3b82f6"/>
      <stop offset="100%" style="stop-color:#2563eb"/>
    </linearGradient>
    <linearGradient id="progressGreen" x1="0%" y1="0%" x2="100%" y2="0%">
      <stop offset="0%" style="stop-color:#22c55e"/>
      <stop offset="100%" style="stop-color:#16a34a"/>
    </linearGradient>
    <linearGradient id="progressBlue" x1="0%" y1="0%" x2="100%" y2="0%">
      <stop offset="0%" style="stop-color:#3b82f6"/>
      <stop offset="100%" style="stop-color:#2563eb"/>
    </linearGradient>
    <linearGradient id="progressAmber" x1="0%" y1="0%" x2="100%" y2="0%">
      <stop offset="0%" style="stop-color:#f59e0b"/>
      <stop offset="100%" style="stop-color:#d97706"/>
    </linearGradient>
    <linearGradient id="radarGrad" x1="0%" y1="0%" x2="100%" y2="100%">
      <stop offset="0%" style="stop-color:#3b82f6" stop-opacity="0.3"/>
      <stop offset="100%" style="stop-color:#2563eb" stop-opacity="0.1"/>
    </linearGradient>
    <filter id="softShadow">
      <feDropShadow dx="1" dy="2" stdDeviation="2" flood-color="#000" flood-opacity="0.35"/>
    </filter>
    <filter id="glowBlue">
      <feGaussianBlur stdDeviation="1" result="blur"/>
      <feMerge>
        <feMergeNode in="blur"/>
        <feMergeNode in="SourceGraphic"/>
      </feMerge>
    </filter>
  </defs>
  <circle cx="50" cy="50" r="48" fill="url(#bgGrad)"/>
  <circle cx="50" cy="50" r="48" fill="none" stroke="#2563eb" stroke-width="0.8" opacity="0.5"/>
  <g filter="url(#softShadow)">
    <rect x="14" y="18" width="70" height="62" rx="4" fill="url(#panelGrad)"/>
    <rect x="14" y="18" width="70" height="9" rx="4" fill="url(#headerGrad)"/>
    <rect x="14" y="23" width="70" height="4" fill="url(#headerGrad)"/>
  </g>
  <circle cx="22" cy="22.5" r="3.5" fill="white" opacity="0.9"/>
  <circle cx="22" cy="21" r="1.5" fill="url(#avatarGrad)"/>
  <path d="M19 24.5 Q22 22.5 25 24.5" fill="url(#avatarGrad)" opacity="0.8"/>
  <line x1="29" y1="22.5" x2="58" y2="22.5" stroke="white" stroke-width="2" stroke-linecap="round" opacity="0.8"/>
  <circle cx="68" cy="22.5" r="2.5" fill="#22c55e" opacity="0.9"/>
  <rect x="17" y="31" width="19" height="12" rx="2" fill="url(#kpiGrad)"/>
  <rect x="39" y="31" width="19" height="12" rx="2" fill="url(#kpiGrad)"/>
  <rect x="61" y="31" width="19" height="12" rx="2" fill="url(#kpiGrad)"/>
  <line x1="20" y1="35" x2="33" y2="35" stroke="#60a5fa" stroke-width="1" stroke-linecap="round" opacity="0.6"/>
  <line x1="20" y1="39" x2="29" y2="39" stroke="white" stroke-width="1.8" stroke-linecap="round"/>
  <line x1="42" y1="35" x2="55" y2="35" stroke="#60a5fa" stroke-width="1" stroke-linecap="round" opacity="0.6"/>
  <line x1="42" y1="39" x2="53" y2="39" stroke="#22c55e" stroke-width="1.8" stroke-linecap="round"/>
  <line x1="64" y1="35" x2="77" y2="35" stroke="#60a5fa" stroke-width="1" stroke-linecap="round" opacity="0.6"/>
  <line x1="64" y1="39" x2="73" y2="39" stroke="#f59e0b" stroke-width="1.8" stroke-linecap="round"/>
  <circle cx="21" cy="51" r="3" fill="url(#avatarGrad)" opacity="0.9"/>
  <line x1="27" y1="49.5" x2="42" y2="49.5" stroke="#334155" stroke-width="1.5" stroke-linecap="round"/>
  <rect x="27" y="52" width="15" height="2.5" rx="1.2" fill="#cbd5e1"/>
  <rect x="27" y="52" width="11" height="2.5" rx="1.2" fill="url(#progressGreen)"/>
  <circle cx="21" cy="61" r="3" fill="url(#avatarGrad)" opacity="0.7"/>
  <line x1="27" y1="59.5" x2="42" y2="59.5" stroke="#334155" stroke-width="1.5" stroke-linecap="round"/>
  <rect x="27" y="62" width="15" height="2.5" rx="1.2" fill="#cbd5e1"/>
  <rect x="27" y="62" width="8" height="2.5" rx="1.2" fill="url(#progressBlue)"/>
  <circle cx="21" cy="71" r="3" fill="url(#avatarGrad)" opacity="0.5"/>
  <line x1="27" y1="69.5" x2="42" y2="69.5" stroke="#334155" stroke-width="1.5" stroke-linecap="round"/>
  <rect x="27" y="72" width="15" height="2.5" rx="1.2" fill="#cbd5e1"/>
  <rect x="27" y="72" width="5" height="2.5" rx="1.2" fill="url(#progressAmber)"/>
  <g filter="url(#glowBlue)" transform="translate(63, 62)">
    <polygon points="0,-12 10.4,-6 10.4,6 0,12 -10.4,6 -10.4,-6" fill="none" stroke="#94a3b8" stroke-width="0.5" opacity="0.4"/>
    <polygon points="0,-8 6.9,-4 6.9,4 0,8 -6.9,4 -6.9,-4" fill="none" stroke="#94a3b8" stroke-width="0.5" opacity="0.3"/>
    <polygon points="0,-4 3.5,-2 3.5,2 0,4 -3.5,2 -3.5,-2" fill="none" stroke="#94a3b8" stroke-width="0.5" opacity="0.2"/>
    <line x1="0" y1="0" x2="0" y2="-12" stroke="#94a3b8" stroke-width="0.5" opacity="0.3"/>
    <line x1="0" y1="0" x2="10.4" y2="-6" stroke="#94a3b8" stroke-width="0.5" opacity="0.3"/>
    <line x1="0" y1="0" x2="10.4" y2="6" stroke="#94a3b8" stroke-width="0.5" opacity="0.3"/>
    <line x1="0" y1="0" x2="0" y2="12" stroke="#94a3b8" stroke-width="0.5" opacity="0.3"/>
    <line x1="0" y1="0" x2="-10.4" y2="6" stroke="#94a3b8" stroke-width="0.5" opacity="0.3"/>
    <line x1="0" y1="0" x2="-10.4" y2="-6" stroke="#94a3b8" stroke-width="0.5" opacity="0.3"/>
    <polygon points="0,-10 8.5,-4 7,5 0,9 -7,4 -6,-5" fill="url(#radarGrad)" stroke="#3b82f6" stroke-width="1.2" opacity="0.9"/>
    <circle cx="0" cy="0" r="1.5" fill="#3b82f6"/>
  </g>
  <line x1="47" y1="46" x2="47" y2="78" stroke="#94a3b8" stroke-width="0.8" stroke-dasharray="2 2" opacity="0.4"/>
</svg>
