<svg xmlns="http://www.w3.org/2000/svg" viewBox="0 0 100 100" width="100" height="100">
  <defs>
    <linearGradient id="bgGrad" x1="0%" y1="0%" x2="100%" y2="100%">
      <stop offset="0%" style="stop-color:#1a1a2e"/>
      <stop offset="100%" style="stop-color:#16213e"/>
    </linearGradient>
    <linearGradient id="panelGrad" x1="0%" y1="0%" x2="100%" y2="100%">
      <stop offset="0%" style="stop-color:#e8f4fd"/>
      <stop offset="100%" style="stop-color:#c8dff0"/>
    </linearGradient>
    <linearGradient id="headerGrad" x1="0%" y1="0%" x2="100%" y2="0%">
      <stop offset="0%" style="stop-color:#2563eb"/>
      <stop offset="100%" style="stop-color:#3b82f6"/>
    </linearGradient>
    <linearGradient id="bar1" x1="0%" y1="0%" x2="0%" y2="100%">
      <stop offset="0%" style="stop-color:#22c55e"/>
      <stop offset="100%" style="stop-color:#16a34a"/>
    </linearGradient>
    <linearGradient id="bar2" x1="0%" y1="0%" x2="0%" y2="100%">
      <stop offset="0%" style="stop-color:#3b82f6"/>
      <stop offset="100%" style="stop-color:#2563eb"/>
    </linearGradient>
    <linearGradient id="bar3" x1="0%" y1="0%" x2="0%" y2="100%">
      <stop offset="0%" style="stop-color:#f59e0b"/>
      <stop offset="100%" style="stop-color:#d97706"/>
    </linearGradient>
    <linearGradient id="bar4" x1="0%" y1="0%" x2="0%" y2="100%">
      <stop offset="0%" style="stop-color:#ef4444"/>
      <stop offset="100%" style="stop-color:#dc2626"/>
    </linearGradient>
    <linearGradient id="gaugeGrad" x1="0%" y1="100%" x2="100%" y2="0%">
      <stop offset="0%" style="stop-color:#ef4444"/>
      <stop offset="40%" style="stop-color:#f59e0b"/>
      <stop offset="100%" style="stop-color:#22c55e"/>
    </linearGradient>
    <linearGradient id="kpiGrad" x1="0%" y1="0%" x2="100%" y2="100%">
      <stop offset="0%" style="stop-color:#1e3a5f"/>
      <stop offset="100%" style="stop-color:#1e4080"/>
    </linearGradient>
    <filter id="softShadow">
      <feDropShadow dx="1" dy="2" stdDeviation="2" flood-color="#000" flood-opacity="0.35"/>
    </filter>
    <filter id="glowGreen">
      <feGaussianBlur stdDeviation="1" result="blur"/>
      <feMerge>
        <feMergeNode in="blur"/>
        <feMergeNode in="SourceGraphic"/>
      </feMerge>
    </filter>
  </defs>
  <circle cx="50" cy="50" r="48" fill="url(#bgGrad)"/>
  <circle cx="50" cy="50" r="48" fill="none" stroke="#2563eb" stroke-width="0.8" opacity="0.5"/>
  <g filter="url(#softShadow)">
    <rect x="14" y="18" width="70" height="62" rx="4" fill="url(#panelGrad)"/>
    <rect x="14" y="18" width="70" height="9" rx="4" fill="url(#headerGrad)"/>
    <rect x="14" y="23" width="70" height="4" fill="url(#headerGrad)"/>
  </g>
  <circle cx="21" cy="22.5" r="1.5" fill="white" opacity="0.5"/>
  <circle cx="26" cy="22.5" r="1.5" fill="white" opacity="0.5"/>
  <circle cx="31" cy="22.5" r="1.5" fill="white" opacity="0.5"/>
  <line x1="38" y1="22.5" x2="62" y2="22.5" stroke="white" stroke-width="2" stroke-linecap="round" opacity="0.7"/>
  <rect x="17" y="31" width="19" height="13" rx="2" fill="url(#kpiGrad)"/>
  <line x1="20" y1="35" x2="32" y2="35" stroke="#60a5fa" stroke-width="1.2" stroke-linecap="round" opacity="0.7"/>
  <line x1="20" y1="39" x2="28" y2="39" stroke="white" stroke-width="1.8" stroke-linecap="round"/>
  <rect x="39" y="31" width="19" height="13" rx="2" fill="url(#kpiGrad)"/>
  <line x1="42" y1="35" x2="54" y2="35" stroke="#60a5fa" stroke-width="1.2" stroke-linecap="round" opacity="0.7"/>
  <line x1="42" y1="39" x2="50" y2="39" stroke="#22c55e" stroke-width="1.8" stroke-linecap="round"/>
  <rect x="61" y="31" width="19" height="13" rx="2" fill="url(#kpiGrad)"/>
  <line x1="64" y1="35" x2="76" y2="35" stroke="#60a5fa" stroke-width="1.2" stroke-linecap="round" opacity="0.7"/>
  <line x1="64" y1="39" x2="74" y2="39" stroke="#f59e0b" stroke-width="1.8" stroke-linecap="round"/>
  <g filter="url(#glowGreen)">
    <path d="M 26 65 A 13 13 0 0 1 52 65" fill="none" stroke="#1e3a5f" stroke-width="5" stroke-linecap="round"/>
    <path d="M 26 65 A 13 13 0 0 1 50 53" fill="none" stroke="url(#gaugeGrad)" stroke-width="5" stroke-linecap="round"/>
    <line x1="39" y1="65" x2="49.5" y2="54" stroke="white" stroke-width="1.5" stroke-linecap="round"/>
    <circle cx="39" cy="65" r="2" fill="white"/>
  </g>
  <line x1="29" y1="68" x2="35" y2="68" stroke="#94a3b8" stroke-width="1" stroke-linecap="round"/>
  <line x1="43" y1="68" x2="49" y2="68" stroke="#94a3b8" stroke-width="1" stroke-linecap="round"/>
  <rect x="57" y="63" width="5" height="7" rx="1" fill="url(#bar4)" opacity="0.9"/>
  <rect x="63" y="58" width="5" height="12" rx="1" fill="url(#bar3)" opacity="0.9"/>
  <rect x="69" y="53" width="5" height="17" rx="1" fill="url(#bar2)" opacity="0.9"/>
  <rect x="75" y="57" width="5" height="13" rx="1" fill="url(#bar1)" opacity="0.9"/>
  <line x1="56" y1="70" x2="81" y2="70" stroke="#94a3b8" stroke-width="1" stroke-linecap="round" opacity="0.5"/>
  <polyline points="17,76 24,73 31,74 38,71 45,72 52,69" fill="none" stroke="#3b82f6" stroke-width="1.5" stroke-linecap="round" stroke-linejoin="round"/>
  <circle cx="52" cy="69" r="1.8" fill="#3b82f6"/>
</svg>
