<svg xmlns="http://www.w3.org/2000/svg" viewBox="0 0 100 100" width="100" height="100">
  <defs>
    <linearGradient id="bgGrad" x1="0%" y1="0%" x2="100%" y2="100%">
      <stop offset="0%" style="stop-color:#0f172a"/>
      <stop offset="100%" style="stop-color:#1e293b"/>
    </linearGradient>
    <linearGradient id="blockTop" x1="0%" y1="0%" x2="100%" y2="100%">
      <stop offset="0%" style="stop-color:#3b82f6"/>
      <stop offset="100%" style="stop-color:#2563eb"/>
    </linearGradient>
    <linearGradient id="blockLeft" x1="0%" y1="0%" x2="100%" y2="0%">
      <stop offset="0%" style="stop-color:#1d4ed8"/>
      <stop offset="100%" style="stop-color:#1e40af"/>
    </linearGradient>
    <linearGradient id="blockRight" x1="0%" y1="0%" x2="100%" y2="0%">
      <stop offset="0%" style="stop-color:#1e3a8a"/>
      <stop offset="100%" style="stop-color:#172554"/>
    </linearGradient>
    <linearGradient id="block2Top" x1="0%" y1="0%" x2="100%" y2="100%">
      <stop offset="0%" style="stop-color:#8b5cf6"/>
      <stop offset="100%" style="stop-color:#7c3aed"/>
    </linearGradient>
    <linearGradient id="block2Left" x1="0%" y1="0%" x2="100%" y2="0%">
      <stop offset="0%" style="stop-color:#6d28d9"/>
      <stop offset="100%" style="stop-color:#5b21b6"/>
    </linearGradient>
    <linearGradient id="block2Right" x1="0%" y1="0%" x2="100%" y2="0%">
      <stop offset="0%" style="stop-color:#4c1d95"/>
      <stop offset="100%" style="stop-color:#3b0764"/>
    </linearGradient>
    <linearGradient id="block3Top" x1="0%" y1="0%" x2="100%" y2="100%">
      <stop offset="0%" style="stop-color:#06b6d4"/>
      <stop offset="100%" style="stop-color:#0891b2"/>
    </linearGradient>
    <linearGradient id="block3Left" x1="0%" y1="0%" x2="100%" y2="0%">
      <stop offset="0%" style="stop-color:#0e7490"/>
      <stop offset="100%" style="stop-color:#155e75"/>
    </linearGradient>
    <linearGradient id="block3Right" x1="0%" y1="0%" x2="100%" y2="0%">
      <stop offset="0%" style="stop-color:#164e63"/>
      <stop offset="100%" style="stop-color:#083344"/>
    </linearGradient>
    <linearGradient id="pencilBody" x1="0%" y1="0%" x2="100%" y2="0%">
      <stop offset="0%" style="stop-color:#fcd34d"/>
      <stop offset="100%" style="stop-color:#f59e0b"/>
    </linearGradient>
    <linearGradient id="pencilDark" x1="0%" y1="0%" x2="100%" y2="0%">
      <stop offset="0%" style="stop-color:#d97706"/>
      <stop offset="100%" style="stop-color:#b45309"/>
    </linearGradient>
    <linearGradient id="plusGrad" x1="0%" y1="0%" x2="100%" y2="100%">
      <stop offset="0%" style="stop-color:#22c55e"/>
      <stop offset="100%" style="stop-color:#16a34a"/>
    </linearGradient>
    <filter id="outerGlow">
      <feGaussianBlur stdDeviation="2" result="blur"/>
      <feMerge>
        <feMergeNode in="blur"/>
        <feMergeNode in="SourceGraphic"/>
      </feMerge>
    </filter>
    <filter id="blockShadow">
      <feDropShadow dx="0" dy="4" stdDeviation="3" flood-color="#000" flood-opacity="0.5"/>
    </filter>
  </defs>
  <circle cx="50" cy="50" r="48" fill="url(#bgGrad)"/>
  <circle cx="50" cy="50" r="48" fill="none" stroke="#1e40af" stroke-width="0.5" opacity="0.3"/>
  <line x1="10" y1="50" x2="90" y2="50" stroke="#1e3a8a" stroke-width="0.4" opacity="0.3"/>
  <line x1="50" y1="10" x2="50" y2="90" stroke="#1e3a8a" stroke-width="0.4" opacity="0.3"/>
  <g filter="url(#blockShadow)">
    <polygon points="50,38 66,47 50,56 34,47" fill="url(#blockTop)"/>
    <polygon points="34,47 50,56 50,72 34,63" fill="url(#blockLeft)"/>
    <polygon points="66,47 50,56 50,72 66,63" fill="url(#blockRight)"/>
    <polygon points="50,38 66,47 50,56 34,47" fill="white" opacity="0.06"/>
    <polyline points="34,47 50,38 66,47" fill="none" stroke="white" stroke-width="0.8" opacity="0.3"/>
  </g>
  <g filter="url(#blockShadow)">
    <polygon points="50,24 66,33 50,42 34,33" fill="url(#block2Top)"/>
    <polygon points="34,33 50,42 50,56 34,47" fill="url(#block2Left)"/>
    <polygon points="66,33 50,42 50,56 66,47" fill="url(#block2Right)"/>
    <polygon points="50,24 66,33 50,42 34,33" fill="white" opacity="0.06"/>
    <polyline points="34,33 50,24 66,33" fill="none" stroke="white" stroke-width="0.8" opacity="0.3"/>
  </g>
  <g filter="url(#blockShadow)">
    <polygon points="50,14 62,21 50,28 38,21" fill="url(#block3Top)"/>
    <polygon points="38,21 50,28 50,38 38,31" fill="url(#block3Left)"/>
    <polygon points="62,21 50,28 50,38 62,31" fill="url(#block3Right)"/>
    <polygon points="50,14 62,21 50,28 38,21" fill="white" opacity="0.08"/>
    <polyline points="38,21 50,14 62,21" fill="none" stroke="white" stroke-width="0.8" opacity="0.4"/>
  </g>
  <line x1="43" y1="47" x2="57" y2="47" stroke="white" stroke-width="1" stroke-linecap="round" opacity="0.5"/>
  <line x1="43" y1="33" x2="57" y2="33" stroke="white" stroke-width="1" stroke-linecap="round" opacity="0.5"/>
  <line x1="45" y1="21" x2="55" y2="21" stroke="white" stroke-width="1" stroke-linecap="round" opacity="0.5"/>
  <g filter="url(#outerGlow)" transform="translate(72, 62) rotate(-15)">
    <rect x="-3" y="-20" width="6" height="4" rx="1.5" fill="#f9a8d4"/>
    <rect x="-3" y="-17" width="6" height="1.2" fill="#9ca3af"/>
    <rect x="-3" y="-16" width="6" height="18" rx="1" fill="url(#pencilBody)"/>
    <rect x="1.5" y="-16" width="1.5" height="18" fill="url(#pencilDark)" opacity="0.5"/>
    <rect x="-3" y="2" width="6" height="4" fill="#c4863a"/>
    <polygon points="-3,6 3,6 0,13" fill="#f1f5f9"/>
    <polygon points="-1,10 1,10 0,13" fill="#374151"/>
    <line x1="-1.2" y1="-15" x2="-1.2" y2="2" stroke="white" stroke-width="0.8" opacity="0.35" stroke-linecap="round"/>
  </g>
  <g filter="url(#outerGlow)">
    <circle cx="24" cy="76" r="10" fill="url(#plusGrad)"/>
    <circle cx="24" cy="76" r="10" fill="none" stroke="white" stroke-width="0.6" opacity="0.3"/>
    <line x1="24" y1="71" x2="24" y2="81" stroke="white" stroke-width="2.2" stroke-linecap="round"/>
    <line x1="19" y1="76" x2="29" y2="76" stroke="white" stroke-width="2.2" stroke-linecap="round"/>
  </g>
</svg>
