<svg xmlns="http://www.w3.org/2000/svg" viewBox="0 0 100 100" width="100" height="100">
  <defs>
    <linearGradient id="bgGrad" x1="0%" y1="0%" x2="100%" y2="100%">
      <stop offset="0%" style="stop-color:#f8fafc"/>
      <stop offset="100%" style="stop-color:#f1f5f9"/>
    </linearGradient>
    <linearGradient id="accentBlue" x1="0%" y1="0%" x2="100%" y2="100%">
      <stop offset="0%" style="stop-color:#2563eb"/>
      <stop offset="100%" style="stop-color:#1d4ed8"/>
    </linearGradient>
    <linearGradient id="accentViolet" x1="0%" y1="0%" x2="100%" y2="100%">
      <stop offset="0%" style="stop-color:#8b5cf6"/>
      <stop offset="100%" style="stop-color:#7c3aed"/>
    </linearGradient>
    <linearGradient id="accentCyan" x1="0%" y1="0%" x2="100%" y2="100%">
      <stop offset="0%" style="stop-color:#06b6d4"/>
      <stop offset="100%" style="stop-color:#0891b2"/>
    </linearGradient>
    <linearGradient id="accentGreen" x1="0%" y1="0%" x2="100%" y2="100%">
      <stop offset="0%" style="stop-color:#22c55e"/>
      <stop offset="100%" style="stop-color:#16a34a"/>
    </linearGradient>
  </defs>
  <circle cx="50" cy="50" r="48" fill="url(#bgGrad)"/>
  <circle cx="50" cy="50" r="48" fill="none" stroke="#e2e8f0" stroke-width="1.5"/>
  <line x1="32" y1="18" x2="32" y2="75" stroke="#cbd5e1" stroke-width="1.5" stroke-linecap="round"/>
  <circle cx="32" cy="24" r="5" fill="url(#accentBlue)"/>
  <rect x="42" y="20" width="30" height="8" rx="2" fill="url(#accentBlue)" opacity="0.12"/>
  <line x1="45" y1="24" x2="66" y2="24" stroke="#2563eb" stroke-width="1.8" stroke-linecap="round"/>
  <circle cx="32" cy="40" r="5" fill="url(#accentViolet)"/>
  <rect x="42" y="36" width="30" height="8" rx="2" fill="url(#accentViolet)" opacity="0.12"/>
  <line x1="45" y1="40" x2="64" y2="40" stroke="#8b5cf6" stroke-width="1.8" stroke-linecap="round"/>
  <circle cx="32" cy="56" r="5" fill="url(#accentCyan)"/>
  <rect x="42" y="52" width="30" height="8" rx="2" fill="url(#accentCyan)" opacity="0.12"/>
  <line x1="45" y1="56" x2="68" y2="56" stroke="#06b6d4" stroke-width="1.8" stroke-linecap="round"/>
  <line x1="32" y1="66" x2="32" y2="75" stroke="#cbd5e1" stroke-width="1.5" stroke-dasharray="2.5 2.5" stroke-linecap="round"/>
  <circle cx="32" cy="78" r="5" fill="none" stroke="url(#accentGreen)" stroke-width="1.8" stroke-dasharray="3 2"/>
  <line x1="32" y1="76" x2="32" y2="80" stroke="#22c55e" stroke-width="1.5" stroke-linecap="round"/>
  <line x1="30" y1="78" x2="34" y2="78" stroke="#22c55e" stroke-width="1.5" stroke-linecap="round"/>
  <rect x="42" y="74" width="30" height="8" rx="2" fill="none" stroke="#cbd5e1" stroke-width="1.2" stroke-dasharray="3 2"/>
  <line x1="46" y1="76.5" x2="46" y2="80.5" stroke="#22c55e" stroke-width="1.3" stroke-linecap="round"/>
  <g transform="translate(80, 20) rotate(40)">
    <rect x="-2.5" y="-13" width="5" height="3" rx="1" fill="#f9a8d4"/>
    <rect x="-2.5" y="-10.5" width="5" height="1" fill="#d1d5db"/>
    <rect x="-2.5" y="-9.5" width="5" height="13" rx="1" fill="#fcd34d"/>
    <rect x="-2.5" y="3.5" width="5" height="3" fill="#c4863a"/>
    <polygon points="-2.5,6.5 2.5,6.5 0,11" fill="#e2e8f0"/>
    <polygon points="-1,9 1,9 0,11" fill="#374151"/>
  </g>
</svg>
